<svg width="28" height="28" viewBox="0 0 28 28" fill="none" xmlns="http://www.w3.org/2000/svg">
<path d="M14 0.666667C6.636 0.666667 0.666664 6.636 0.666664 14C0.666664 21.364 6.636 27.3333 14 27.3333C21.364 27.3333 27.3333 21.364 27.3333 14C27.3333 6.636 21.364 0.666667 14 0.666667ZM14 3.33333C19.8813 3.33333 24.6667 8.11867 24.6667 14C24.6667 19.8813 19.8813 24.6667 14 24.6667C8.11866 24.6667 3.33333 19.8813 3.33333 14C3.33333 8.11867 8.11866 3.33333 14 3.33333ZM11.3333 8V20L19.3333 14L11.3333 8Z" fill="white"/>
</svg>
